<?xml version="1.0" encoding="UTF-8"?>
<svg width="47px" height="47px" viewBox="0 0 47 47" version="1.1" xmlns="http://www.w3.org/2000/svg" xmlns:xlink="http://www.w3.org/1999/xlink">
    <!-- Generator: Sketch 51.2 (57519) - http://www.bohemiancoding.com/sketch -->
    <title>icon/blurb/10 años</title>
    <desc>Created with Sketch.</desc>
    <defs></defs>
    <g id="icon/blurb/10-años" stroke="none" stroke-width="1" fill="none" fill-rule="evenodd">
        <path d="M41.7777778,0 L5.22222222,0 C2.35011013,0 0,2.35011013 0,5.22222222 L0,41.7777778 C0,44.6498899 2.35011013,47 5.22222222,47 L41.7777778,47 C44.6498899,47 47,44.6498899 47,41.7777778 L47,5.22222222 C47,2.35011013 44.6498899,0 41.7777778,0 Z M33.9464516,18.9857088 C33.8526962,18.7860696 33.650777,18.657939 33.4283509,18.657939 L26.6516933,18.657939 L33.3396888,8.18631991 C33.4512034,8.01166887 33.458039,7.79049738 33.357448,7.60959931 C33.25679,7.42810312 33.0645881,7.31578947 32.8564364,7.31578947 L21.5461403,7.31578947 C21.3294106,7.31578947 21.1315123,7.43714138 21.0343391,7.62940373 L13.5364921,24.6425949 C13.4478299,24.817844 13.4575472,25.0265214 13.5616231,25.1937957 C13.666302,25.3610699 13.8498589,25.463149 14.0482932,25.463149 L19.9288129,25.463149 L14.6012119,40.5549793 C14.4919758,40.8130349 14.589216,41.1124272 14.8299375,41.2587672 C14.9225536,41.314924 15.0254901,41.3421053 15.1278906,41.3421053 C15.2920128,41.3421053 15.4538564,41.2723246 15.5659742,41.1408047 L33.8658313,19.5907404 C34.0093126,19.4218047 34.040207,19.1858796 33.9464516,18.9857088 Z" id="10-años" fill="#08D607"></path>
    </g>
</svg>