<?xml version="1.0" encoding="UTF-8"?>
<svg width="47px" height="63px" viewBox="0 0 47 63" version="1.1" xmlns="http://www.w3.org/2000/svg" xmlns:xlink="http://www.w3.org/1999/xlink">
    <!-- Generator: Sketch 51.2 (57519) - http://www.bohemiancoding.com/sketch -->
    <title>icon/blurb/aumento de potencia</title>
    <desc>Created with Sketch.</desc>
    <defs></defs>
    <g id="icon/blurb/aumento-de-potencia" stroke="none" stroke-width="1" fill="none" fill-rule="evenodd">
        <path d="M37.9008547,21.6069504 C37.7272658,21.2373169 37.3534108,21.000082 36.9415871,21.000082 L24.3945505,21.000082 L36.7774284,1.61179416 C36.9838986,1.28842634 36.9965548,0.878925545 36.8103097,0.543991297 C36.6239406,0.207949625 36.2680772,0 35.8826827,0 L14.9415777,0 C14.5403008,0 14.1738906,0.224684033 13.9939736,0.580659337 L0.111648871,32.0807209 C-0.0525098453,32.4051961 -0.0345181493,32.791564 0.158179119,33.1012736 C0.351993113,33.4109832 0.691850047,33.5999836 1.05925289,33.5999836 L11.9470828,33.5999836 L2.08298624,61.54263 C1.88073476,62.0204219 2.0607758,62.5747492 2.50647354,62.8456989 C2.67795301,62.9496737 2.86854091,63 3.05813616,63 C3.3620097,63 3.6616645,62.8708005 3.86925145,62.6272903 L37.7515856,22.7271713 C38.0172423,22.4143856 38.0744435,21.9775683 37.9008547,21.6069504 Z M35.9999436,35 C29.934551,35 25,39.934551 25,45.9999436 C25,52.0653363 29.934551,57 35.9999436,57 C42.0653363,57 47,52.065449 47,45.9999436 C47.0001127,39.934551 42.065449,35 35.9999436,35 Z M34.5,44.5 L34.5,40.5 C34.5,39.6715729 35.1715729,39 36,39 C36.8284271,39 37.5,39.6715729 37.5,40.5 L37.5,44.5 L41.5,44.5 C42.3284271,44.5 43,45.1715729 43,46 C43,46.8284271 42.3284271,47.5 41.5,47.5 L37.5,47.5 L37.5,51.5 C37.5,52.3284271 36.8284271,53 36,53 C35.1715729,53 34.5,52.3284271 34.5,51.5 L34.5,47.5 L30.5,47.5 C29.6715729,47.5 29,46.8284271 29,46 C29,45.1715729 29.6715729,44.5 30.5,44.5 L34.5,44.5 Z" id="aumento-de-potencia" fill="#08D607" fill-rule="nonzero"></path>
    </g>
</svg>