<?xml version="1.0" encoding="UTF-8"?>
<svg width="47px" height="57px" viewBox="0 0 47 57" version="1.1" xmlns="http://www.w3.org/2000/svg" xmlns:xlink="http://www.w3.org/1999/xlink">
    <!-- Generator: Sketch 51.2 (57519) - http://www.bohemiancoding.com/sketch -->
    <title>icon/blurb/contratacion</title>
    <desc>Created with Sketch.</desc>
    <defs></defs>
    <g id="icon/blurb/contratacion" stroke="none" stroke-width="1" fill="none" fill-rule="evenodd">
        <path d="M32.396452,0 L13.0710654,0 C12.7276159,0 12.4492285,0.28342876 12.4492285,0.633097795 L12.4492285,10.9314149 C12.4492285,10.9444639 12.4475993,10.9571811 12.4472734,10.9701195 C12.4475993,10.983058 12.4492285,10.9957752 12.4492285,11.0088242 C12.4492285,11.9270095 11.7181221,12.6713556 10.8162686,12.6713556 L0.621836874,12.6713556 C0.278387407,12.6713556 0,12.9547844 0,13.3044534 L0,44.3129752 C0,46.9015434 2.06113127,49 4.6036566,49 L21.7630958,49 C22.4757371,49 23.0126349,48.3393666 22.8768626,47.6272007 C22.7238202,46.8241341 22.6436602,45.9945272 22.6436602,45.1458997 C22.6436602,37.9916181 28.3401205,32.7461403 35.3671487,32.7461403 C35.5217118,32.7461403 35.6756232,32.7489049 35.8288829,32.7545447 C36.4695107,32.7778781 37,32.2529322 37,31.6001503 L37,4.6870248 C37,2.09845655 34.9389773,0 32.396452,0 Z M16.4771022,39.45001 L8.16892709,39.45001 C7.26707354,39.45001 6.53596717,38.705664 6.53596717,37.7874786 C6.53596717,36.8692933 7.26707354,36.1249472 8.16892709,36.1249472 L16.4771022,36.1249472 C17.3789557,36.1249472 18.1100621,36.8692933 18.1100621,37.7874786 C18.1100621,38.705664 17.3789557,39.45001 16.4771022,39.45001 Z M28.8312901,32.8317329 L8.16881847,32.8317329 C7.26696493,32.8317329 6.53585855,32.0873868 6.53585855,31.1692015 C6.53585855,30.2510161 7.26696493,29.5066701 8.16881847,29.5066701 L28.8312901,29.5066701 C29.7331437,29.5066701 30.4642501,30.2510161 30.4642501,31.1692015 C30.4642501,32.0873868 29.7330351,32.8317329 28.8312901,32.8317329 Z M28.8312901,26.1624761 L8.16881847,26.1624761 C7.26696493,26.1624761 6.53585855,25.41813 6.53585855,24.4999447 C6.53585855,23.5817594 7.26696493,22.8374133 8.16881847,22.8374133 L28.8312901,22.8374133 C29.7331437,22.8374133 30.4642501,23.5817594 30.4642501,24.4999447 C30.4642501,25.41813 29.7330351,26.1624761 28.8312901,26.1624761 Z M28.8312901,19.7493337 L8.16881847,19.7493337 C7.26696493,19.7493337 6.53585855,19.0049876 6.53585855,18.0868023 C6.53585855,17.1686169 7.26696493,16.4242709 8.16881847,16.4242709 L28.8312901,16.4242709 C29.7331437,16.4242709 30.4642501,17.1686169 30.4642501,18.0868023 C30.4642501,19.0049876 29.7330351,19.7493337 28.8312901,19.7493337 Z M9.84632682,3.19925646 C10.2720478,2.77353806 11,3.07514272 11,3.67740731 L11,10.3238104 C11,10.6972144 10.6974146,10.9998819 10.3241119,11 L3.67715042,11 C3.07504919,11 2.77352634,10.2716141 3.19936539,9.84577763 L9.84632682,3.19925646 Z M35.9999436,35 C29.934551,35 25,39.934551 25,45.9999436 C25,52.0653363 29.934551,57 35.9999436,57 C42.0653363,57 47,52.065449 47,45.9999436 C47.0001127,39.934551 42.065449,35 35.9999436,35 Z M34.3050341,41.7075934 C34.3050341,40.771464 35.0639269,40.0125712 36.0000564,40.0125712 C36.9361858,40.0125712 37.6950786,40.771464 37.6950786,41.7075934 L37.6950786,46.0000564 C37.6950786,46.9361858 36.9361858,47.6950786 36.0000564,47.6950786 C35.0639269,47.6950786 34.3050341,46.9361858 34.3050341,46.0000564 L34.3050341,41.7075934 Z M37.6862845,50.6525171 C37.6806472,50.7078753 37.6728677,50.7632336 37.6614804,50.8174643 C37.6513332,50.8716951 37.6365635,50.9259259 37.6207791,50.9779018 C37.6049946,51.0310051 37.5857151,51.082981 37.5655336,51.1338294 C37.5441118,51.1846778 37.5203225,51.2355262 37.4943909,51.2841197 C37.4684593,51.3327132 37.4401601,51.3813067 37.409606,51.4265178 C37.3789391,51.4728564 37.345228,51.5180675 37.3100513,51.5610237 C37.2749873,51.6039799 37.2377812,51.6458087 37.1983201,51.6841423 C37.1598737,51.7237161 37.118045,51.761035 37.0752015,51.7971137 C37.0321326,51.8310502 36.9870342,51.864874 36.9406956,51.8954282 C36.8954845,51.9259823 36.846891,51.9541688 36.7982975,51.9802131 C36.7495913,52.0062574 36.6988556,52.029934 36.6480072,52.0513558 C36.5971588,52.0727775 36.5451829,52.0909296 36.4920796,52.106714 C36.4388635,52.1236259 36.3858729,52.1372682 36.3316421,52.1474153 C36.2774114,52.1586899 36.2219404,52.1677096 36.1666949,52.1723321 C36.1113366,52.1779694 36.0559784,52.1813518 36.0005074,52.1813518 C35.9452619,52.1813518 35.8887761,52.1779694 35.8334179,52.1723321 C35.7791871,52.1678223 35.7238289,52.1588026 35.6695981,52.1474153 C35.6153673,52.1372682 35.5611365,52.1237387 35.5080331,52.106714 C35.4548171,52.0909296 35.4028412,52.0727775 35.3521055,52.0513558 C35.3012571,52.029934 35.2504087,52.0061447 35.2018152,51.9802131 C35.153109,51.9541688 35.1056429,51.9259823 35.0593044,51.8954282 C35.0130785,51.864874 34.9677547,51.8310502 34.9259259,51.7971137 C34.8818423,51.7609223 34.841141,51.7237161 34.8016799,51.6841423 C34.7619933,51.6456959 34.7246744,51.6038672 34.689836,51.5610237 C34.6546592,51.5180675 34.6220757,51.4728564 34.5915215,51.4265178 C34.5598399,51.3813067 34.5316534,51.3327132 34.5056091,51.2841197 C34.4795648,51.2355262 34.4558882,51.1846778 34.4355939,51.1338294 C34.4141722,51.082981 34.3948926,51.0310051 34.3791082,50.9779018 C34.3633237,50.9259259 34.3496815,50.8716951 34.3384069,50.8174643 C34.3271323,50.7632336 34.3192401,50.7078753 34.3134901,50.6525171 C34.30774,50.5971588 34.3055978,50.5418006 34.3055978,50.4864423 C34.3055978,50.4310841 34.3079655,50.3745983 34.3134901,50.3192401 C34.3191273,50.2650093 34.3270196,50.2096511 34.3384069,50.1554203 C34.3497942,50.1011895 34.3633237,50.0469587 34.3791082,49.9938553 C34.3948926,49.9418795 34.4141722,49.8887761 34.4355939,49.8379277 C34.4558882,49.7870793 34.4796775,49.7362309 34.5056091,49.6876374 C34.5314279,49.6390439 34.5597272,49.5915779 34.5915215,49.5452393 C34.6221884,49.4989007 34.654772,49.4536896 34.689836,49.4118609 C34.7248999,49.3689047 34.7621061,49.3270759 34.8016799,49.2876149 C34.8412537,49.2491685 34.881955,49.2107221 34.9259259,49.1757709 C34.9677547,49.1407069 35.0130785,49.1080106 35.0593044,49.0774565 C35.1056429,49.0469023 35.153109,49.0175884 35.2018152,48.9915441 C35.2504087,48.9654997 35.3012571,48.9418231 35.3521055,48.9215288 C35.4028412,48.9001071 35.4548171,48.8808276 35.5080331,48.8650431 C35.5611365,48.8492587 35.6152545,48.8356164 35.6695981,48.8243418 C35.7239416,48.8130673 35.7791871,48.805175 35.8334179,48.799425 C35.9440216,48.7881504 36.0559784,48.7881504 36.1668076,48.799425 C36.2220531,48.8050623 36.2774114,48.8129545 36.3317549,48.8243418 C36.3858729,48.8356164 36.4389763,48.8492587 36.4921923,48.8650431 C36.5452957,48.8808276 36.5972715,48.9001071 36.64812,48.9215288 C36.6989684,48.9418231 36.749704,48.9656125 36.7984103,48.9915441 C36.8470038,49.0175884 36.8954845,49.0469023 36.9408084,49.0774565 C36.987147,49.1080106 37.0323581,49.1407069 37.0753143,49.1757709 C37.1182705,49.2108349 37.1600992,49.2491685 37.1984328,49.2876149 C37.2380067,49.3271887 37.2753256,49.3690174 37.310164,49.4118609 C37.3453408,49.4536896 37.3790518,49.4989007 37.4097187,49.5452393 C37.4402728,49.5915779 37.4684593,49.6390439 37.4945036,49.6876374 C37.5203225,49.7362309 37.5441118,49.7870793 37.5656463,49.8379277 C37.5859406,49.8887761 37.6052201,49.9418795 37.6208918,49.9938553 C37.636789,50.0469587 37.6515587,50.1011895 37.6615931,50.1554203 C37.6729804,50.2096511 37.6807599,50.2650093 37.6863972,50.3192401 C37.6921472,50.3745983 37.6954169,50.4310841 37.6954169,50.4864423 C37.6954169,50.5418006 37.6920345,50.5971588 37.6862845,50.6525171 Z" id="contratacion" fill="#08D607" fill-rule="nonzero"></path>
    </g>
</svg>