<?xml version="1.0" encoding="UTF-8"?>
<svg width="49px" height="48px" viewBox="0 0 49 48" version="1.1" xmlns="http://www.w3.org/2000/svg" xmlns:xlink="http://www.w3.org/1999/xlink">
    <!-- Generator: Sketch 51.2 (57519) - http://www.bohemiancoding.com/sketch -->
    <title>icon/blurb/cortes</title>
    <desc>Created with Sketch.</desc>
    <defs></defs>
    <g id="icon/blurb/cortes" stroke="none" stroke-width="1" fill="none" fill-rule="evenodd">
        <path d="M39.9999141,22.4528562 L48.0007967,30.4784815 L48.0007967,42.6653754 C48.0007967,45.5985075 45.6007568,47.9985473 42.6676247,47.9985473 L5.33317193,47.9985473 C2.40003983,47.9985473 0,45.5985075 0,42.6653754 L0,25.1205669 L8.00088256,33.0922081 L18.6672264,22.4258642 L29.3335703,33.0922081 L39.9999141,22.4528562 Z M48.0007967,5.33317193 L48.0007967,22.9072218 L39.9999141,14.8793472 L29.3335703,25.5726831 L18.6672264,14.9063392 L8.00088256,25.5726831 L0,17.5470579 L0,5.33317193 C0,2.40003983 2.40003983,0 5.33317193,0 L42.6676247,0 C45.6007568,0 48.0007967,2.40003983 48.0007967,5.33317193 Z" id="cortes" fill="#08D607"></path>
    </g>
</svg>