<?xml version="1.0" encoding="UTF-8"?>
<svg width="39px" height="49px" viewBox="0 0 39 49" version="1.1" xmlns="http://www.w3.org/2000/svg" xmlns:xlink="http://www.w3.org/1999/xlink">
    <!-- Generator: Sketch 51.2 (57519) - http://www.bohemiancoding.com/sketch -->
    <title>icon/blurb/doc</title>
    <desc>Created with Sketch.</desc>
    <defs></defs>
    <g id="icon/blurb/doc" stroke="none" stroke-width="1" fill="none" fill-rule="evenodd">
        <path d="M21.5138561,16.8190346 L21.5138561,3.60538168 L34.6600924,16.8190346 L21.5138561,16.8190346 Z M9.56328204,28.8329203 L28.6858135,28.8329203 L28.6858135,24.0277713 L9.56328204,24.0277713 L9.56328204,28.8329203 Z M9.56328204,38.4432181 L28.6858135,38.4432181 L28.6858135,33.6380692 L9.56328204,33.6380692 L9.56328204,38.4432181 Z M23.9051806,0 L4.78063287,0 C2.15138561,0 0.024195527,2.16241835 0.024195527,4.80514894 L0,43.2483671 C0,45.8910976 2.12719008,48.053516 4.75643734,48.053516 L33.4664464,48.053516 C36.0956937,48.053516 38.2470793,45.8910976 38.2470793,43.2483671 L38.2470793,14.4154468 L23.9051806,0 Z" id="doc" fill="#08D607"></path>
    </g>
</svg>