<?xml version="1.0" encoding="UTF-8"?>
<svg width="49px" height="53px" viewBox="0 0 49 53" version="1.1" xmlns="http://www.w3.org/2000/svg" xmlns:xlink="http://www.w3.org/1999/xlink">
    <!-- Generator: Sketch 51.2 (57519) - http://www.bohemiancoding.com/sketch -->
    <title>icon/blurb/gestion</title>
    <desc>Created with Sketch.</desc>
    <defs></defs>
    <g id="icon/blurb/gestion" stroke="none" stroke-width="1" fill="none" fill-rule="evenodd">
        <path d="M37.0031001,35.4627872 C37.8624075,35.662624 38.7305284,36.1984499 39.340857,36.9077604 C39.6669531,37.2876698 40.1120303,38.1419169 40.2508415,38.6513907 C40.3213488,38.9127156 40.3433823,39.1938046 40.341179,39.7955108 C40.3389756,40.5179974 40.3235521,40.6343858 40.1891477,41.0450393 C39.69119,42.5668728 38.571887,43.6253486 37.0075068,44.0557661 C36.4831089,44.2007026 35.3549925,44.1919186 34.8151712,44.038198 C33.1604535,43.5660563 32.0058969,42.3780161 31.6137001,40.7419902 C31.518956,40.3489048 31.5057359,40.1622441 31.525566,39.582498 C31.5453962,38.9873799 31.5718364,38.8204833 31.7194611,38.3856737 C32.2813159,36.7254918 33.6628179,35.5901557 35.407873,35.3551829 C35.8573568,35.2936946 36.4478553,35.3332228 37.0031001,35.4627872 M31.1113358,27.9744004 C31.906746,27.6493912 32.563345,27.3858702 32.5787685,27.3836742 C32.594192,27.3836742 33.0546926,28.1039648 33.601124,28.98676 L34.5970393,30.5942378 L34.8834751,30.5678857 C35.3175355,30.5283575 36.6131067,30.5371416 37.0075068,30.5810617 L37.3556365,30.6205899 L38.3339249,29.0504442 C38.8715429,28.1896091 39.3364503,27.4693185 39.3628905,27.4539465 C39.4245844,27.4144183 42.2911458,28.6046546 42.2911458,28.6683388 C42.2911458,28.6924949 42.1126743,29.4984298 41.8923391,30.4602813 C41.6720038,31.4243287 41.4913289,32.2434397 41.4913289,32.2851638 C41.4913289,32.326888 41.7160709,32.5530768 41.9870832,32.7880496 C42.4145336,33.159175 42.8904577,33.6620608 43.2914678,34.1737306 L43.3906187,34.3010991 L45.2502481,33.8706815 C46.274807,33.6335127 47.1164876,33.444656 47.1230976,33.45344 C47.131911,33.4600281 47.4051267,34.1210264 47.7356296,34.9225693 C48.200537,36.0557094 48.3173146,36.3895026 48.2600275,36.4224427 C48.2203671,36.4465988 47.4954642,36.9033684 46.6405635,37.4413903 L45.0938101,38.4186139 L45.1202503,38.737035 C45.1577073,39.2003927 45.1533006,40.3730609 45.1092335,40.7837143 L45.0717766,41.1416636 L46.669207,42.1364552 C47.550548,42.6832612 48.2776543,43.1444228 48.2864677,43.1619909 C48.3040945,43.194931 47.1473345,46.0124091 47.0944541,46.0673093 C47.0790306,46.0804854 46.2263332,45.9026087 45.2017743,45.6720279 C44.1772155,45.4414471 43.3245181,45.2723545 43.3090946,45.2987066 C43.2914678,45.3228626 43.1107929,45.5402674 42.9058812,45.7796323 C42.5467347,46.1990698 41.9958966,46.7195237 41.5926831,47.0181807 L41.4009915,47.1609212 L41.8196284,48.9506677 C42.0487771,49.9366752 42.2382654,50.7799422 42.2382654,50.8282544 C42.2382654,50.8941347 41.8614921,51.0698153 40.7840528,51.5068209 L39.3298402,52.097547 L39.2240793,51.9328464 C39.1645888,51.8428101 38.7084948,51.1225195 38.2061305,50.3297606 L37.296146,48.8913755 L36.9017459,48.9155315 C36.3310776,48.9550597 35.3351623,48.9484717 34.9011019,48.9067475 L34.526532,48.8694154 L33.5173966,50.437365 C32.9643552,51.3003961 32.4906344,52.0184907 32.4663975,52.0338627 C32.4333472,52.0536268 29.6174629,50.9182907 29.5469556,50.8568025 C29.5359388,50.8458225 29.7232238,50.0069475 29.9611858,48.9967838 L30.3974496,47.1565292 L30.2476217,47.0401408 C29.7716975,46.6712115 29.2032326,46.1222095 28.8484929,45.693988 L28.4496861,45.2108662 L28.0420659,45.3009026 C26.4314153,45.6676359 24.8295781,45.9970371 24.772291,45.975077 C24.6863602,45.9421369 23.5384136,43.1466188 23.5802773,43.0763466 C23.5979041,43.0477985 24.3206037,42.5888328 25.1843179,42.0595949 L26.7575115,41.0933515 L26.7200545,40.7375982 C26.6693774,40.2632605 26.6693774,39.1389044 26.7222578,38.6953109 L26.7619182,38.3439496 L25.2548251,37.3733141 C24.428568,36.8396842 23.7080718,36.3763265 23.659598,36.3433864 C23.5802773,36.2906822 23.6375645,36.1259816 24.1707758,34.847905 C24.5211088,34.013422 24.8031379,33.4073239 24.8494083,33.3963438 C24.891272,33.3875598 25.7285459,33.5720245 26.7112411,33.8048013 L28.4959565,34.2264348 L28.6039208,34.0836943 C28.9101868,33.6774328 29.4786517,33.0889027 29.9215255,32.7199734 C30.1947412,32.4937846 30.4238898,32.2917519 30.4304999,32.2741838 C30.4393133,32.2566157 30.2630451,31.4155447 30.0449132,30.4097731 C29.824578,29.4061975 29.6505132,28.5739105 29.6571232,28.5695185 C29.6637333,28.5651265 30.3159256,28.2994095 31.1113358,27.9744004 Z M14.9365259,0.0611637285 C15.2031315,0.00187151556 16.8358156,-0.00691251598 23.8270528,0.00406752345 C32.3275863,0.0172435708 32.3958902,0.0172435708 32.9048646,0.129239973 C35.7493926,0.752906212 37.9307114,2.6722171 38.8164591,5.32938664 C39.2483162,6.62942331 39.2174692,5.80372435 39.2350961,16.1688816 L39.2505195,25.4074867 L37.2763158,25.4074867 L35.2999087,25.4074867 L35.2999087,16.3796983 C35.2999087,7.53417856 35.2977053,7.34092987 35.1919444,6.9039243 C34.8504248,5.48969522 33.757562,4.38729926 32.3386031,4.02715397 C31.9309829,3.92174559 31.756918,3.91954958 24.4197546,3.91954958 L16.9173397,3.91954958 L16.644124,4.07546614 C16.2034535,4.32581104 15.9324412,4.80893278 15.7605797,5.6500038 C15.7121059,5.87619261 15.6856657,7.14987718 15.6658355,10.0903317 L15.6349886,14.2122385 L15.4895673,14.5108956 C15.3132991,14.8666489 14.8527985,15.3168305 14.4980587,15.4793351 C14.2490799,15.5935275 14.2204363,15.5957235 10.2191484,15.6264676 C7.48699143,15.6484277 6.07904925,15.6791718 5.84329055,15.720896 C4.77025793,15.9163407 4.21501313,16.2742899 3.99027118,16.9199163 C3.89993374,17.1768492 3.89552703,17.8620036 3.89552703,30.3814446 C3.89552703,42.7164209 3.90213709,43.594824 3.98586448,43.9286172 C4.37585785,45.4394707 5.53482121,46.5594347 7.02869413,46.8646798 C7.39445063,46.9393441 8.5203637,46.9503241 17.4483476,46.9503241 L27.4559742,46.9503241 L27.4559742,48.9179472 L27.4559742,50.8855702 L17.1971654,50.8701982 C7.75580042,50.8548261 6.9008997,50.8460421 6.48446609,50.7625938 C3.20587773,50.1015954 0.835070557,47.8023752 0.121184382,44.5940076 L0,44.0515937 L0,29.5293935 L0,15.0093894 L0.123387734,14.611912 C0.403213488,13.7181368 1.1016762,12.6442889 2.21436916,11.3925644 C2.95249221,10.5646694 10.6311753,2.91597398 11.4243822,2.21983948 C12.8918149,0.932978859 13.9648475,0.274176493 14.9365259,0.0611637285 Z M9.79213871,19.5575413 L9.79213871,17.5899183 L19.610277,17.5899183 L29.4306186,17.5899183 L29.4306186,19.5575413 L29.4306186,21.5251644 L19.610277,21.5251644 L9.79213871,21.5251644 L9.79213871,19.5575413 Z M9.79213871,29.3440505 L9.79213871,27.3764274 L18.5174142,27.3764274 L27.2426897,27.3764274 L27.2426897,29.3440505 L27.2426897,31.3116735 L18.5174142,31.3116735 L9.79213871,31.3116735 L9.79213871,29.3440505 Z M9.79213871,39.1307792 L9.79213871,37.1631561 L16.6489714,37.1631561 L23.5080074,37.1631561 L23.5080074,39.1307792 L23.5080074,41.0984023 L16.6489714,41.0984023 L9.79213871,41.0984023 L9.79213871,39.1307792 Z" id="gestion" fill="#08D607"></path>
    </g>
</svg>