<?xml version="1.0" encoding="UTF-8"?>
<svg width="56px" height="49px" viewBox="0 0 56 49" version="1.1" xmlns="http://www.w3.org/2000/svg" xmlns:xlink="http://www.w3.org/1999/xlink">
    <!-- Generator: Sketch 51.2 (57519) - http://www.bohemiancoding.com/sketch -->
    <title>icon/blurb/heartbeat</title>
    <desc>Created with Sketch.</desc>
    <defs></defs>
    <g id="icon/blurb/heartbeat" stroke="none" stroke-width="1" fill="none" fill-rule="evenodd">
        <g fill="#08D607" fill-rule="nonzero" id="Shape">
            <path d="M41.125,0 C34.4904219,0 30.2317969,4.75371783 28,9.03502845 C25.7682031,4.75360468 21.5095781,0 14.875,0 C6.45717187,0 0,7.06585413 0,16.4372818 C0,18.8824842 0.473265625,21.1399683 1.34465625,23.3091944 L13.860875,23.3091944 L16.6886562,17.4582471 C17.24625,16.3079497 19.06625,16.3079497 19.6238437,17.4582471 L24.71875,28 L26.5324062,24.247446 C27.09,23.0971486 28.91,23.0971486 29.4675937,24.247446 L31.28125,28 L36.3761562,17.4583603 C36.93375,16.3080628 38.75375,16.3080628 39.3113437,17.4583603 L42.139125,23.3091944 L54.6553437,23.3091944 C55.5267344,21.1399683 56,18.8824842 56,16.4372818 C56,7.06585413 49.5428281,0 41.125,0 Z"></path>
            <path d="M41.1601978,25.6160943 C40.5368482,25.6160943 39.9682228,25.2588773 39.6886806,24.6928755 L37.8701757,21 L32.7616489,31.3739914 C32.4821067,31.9399932 31.9134812,32.2972102 31.2901317,32.2972102 C30.6667822,32.2972102 30.0981567,31.9399932 29.8186145,31.3739914 L28.0001097,27.6811159 L26.1816048,31.3739914 C25.6225204,32.5059951 23.7976549,32.5059951 23.2385705,31.3739914 L18.1300436,21 L16.3115388,24.6928755 C16.0319966,25.2588773 15.4633711,25.6160943 14.8400216,25.6160943 L3,25.6160943 C6.38576166,31.0249031 12.4833788,36.1625698 20.1107465,42.6989282 C22.2521122,44.5338967 24.5301234,46.4864528 26.9220791,48.5922292 C27.2321089,48.8645961 27.6160544,49 28,49 C28.3839456,49 28.7678911,48.8645961 29.0779209,48.5922292 C31.4699862,46.4864528 33.7478878,44.5340081 35.8892535,42.6989282 C43.5167309,36.1625698 49.6142383,31.0249031 53,25.6160943 L41.1601978,25.6160943 Z"></path>
        </g>
    </g>
</svg>