<?xml version="1.0" encoding="UTF-8"?>
<svg width="40px" height="50px" viewBox="0 0 40 50" version="1.1" xmlns="http://www.w3.org/2000/svg" xmlns:xlink="http://www.w3.org/1999/xlink">
    <!-- Generator: Sketch 51.2 (57519) - http://www.bohemiancoding.com/sketch -->
    <title>icon/blurb/medidor</title>
    <desc>Created with Sketch.</desc>
    <defs></defs>
    <g id="icon/blurb/medidor" stroke="none" stroke-width="1" fill="none" fill-rule="evenodd">
        <path d="M37.8946693,17.70837 C39.0573676,17.70837 39.9999013,16.7756515 39.9999013,15.625061 L39.9999013,9.37503662 C39.9999013,8.22444619 39.0573676,7.2917277 37.8946693,7.2917277 L36.842004,7.2917277 L36.842004,5.20832113 C36.83855,2.3333099 34.4842389,0.0034179821 31.5788747,0 L8.42102666,0 C5.51566243,0.0034179821 3.16135128,2.3333099 3.15789733,5.20832113 L3.15789733,13.5416545 L2.10523199,13.5416545 C0.94253367,13.5416545 0,14.4743729 0,15.6249634 L0,21.8749878 C0,23.0255782 0.94253367,23.9582967 2.10523199,23.9582967 L3.15789733,23.9582967 L3.15789733,44.7916789 C3.16135128,47.6667878 5.51576111,49.996582 8.42102666,50 L31.5789733,50 C34.4843376,49.996582 36.8386487,47.6666901 36.8421027,44.7916789 L36.8421027,29.1666178 L37.894768,29.1666178 C39.0574663,29.1666178 40,28.2338994 40,27.0833089 L40,20.8332845 C40,19.6826941 39.0574663,18.7499756 37.894768,18.7499756 L36.8421027,18.7499756 L36.8421027,17.7082723 L37.8946693,17.7082723 L37.8946693,17.70837 Z M9.47359332,31.2501221 C8.89224415,31.2501221 8.42102666,30.783714 8.42092798,30.2084188 L8.42092798,26.0417033 C8.42092798,25.4664081 8.89224415,25 9.47359332,25 L13.684156,25 C14.2655052,25 14.7368213,25.4664081 14.7368213,26.0417033 L14.7368213,30.2084188 C14.7368213,30.783714 14.2655052,31.2501221 13.684156,31.2501221 L9.47359332,31.2501221 Z M16.8420533,30.2084188 L16.8420533,26.0417033 C16.8420533,25.4664081 17.3133695,25 17.8947187,25 L22.1052813,25 C22.6866305,25 23.1579467,25.4664081 23.1579467,26.0417033 L23.1579467,30.2084188 C23.1579467,30.783714 22.6866305,31.2501221 22.1052813,31.2501221 L17.8947187,31.2501221 C17.3133695,31.2501221 16.8420533,30.783714 16.8420533,30.2084188 Z M30.526308,25.0000977 C31.1076572,25.0000977 31.5788747,25.4665057 31.5789733,26.0418009 L31.5789733,30.2085164 C31.5789733,30.7838117 31.1076572,31.2502197 30.526308,31.2502197 L26.3157453,31.2502197 C25.7343962,31.2502197 25.26308,30.7838117 25.26308,30.2085164 L25.26308,26.0418009 C25.26308,25.4665057 25.7343962,25.0000977 26.3157453,25.0000977 L30.526308,25.0000977 Z M30.526308,34.3751343 C31.1076572,34.3751343 31.5788747,34.8415423 31.5788747,35.4168376 L31.5788747,44.7918742 L29.4736427,44.7918742 L29.4736427,36.4585409 L10.5262587,36.4585409 L10.5262587,44.7918742 L8.42092798,44.7918742 L8.42092798,35.4168376 C8.42092798,34.8415423 8.89224415,34.3751343 9.47359332,34.3751343 L30.526308,34.3751343 Z M12.6314907,38.5418498 L27.368312,38.5418498 L27.368312,40.6251587 L12.6314907,40.6251587 L12.6314907,38.5418498 Z M12.6314907,42.7084676 L27.368312,42.7084676 L27.368312,44.7917765 L12.6314907,44.7917765 L12.6314907,42.7084676 Z M30.526308,16.9896171 L30.526308,21.8750854 L9.47359332,21.8750854 L9.47359332,16.6667643 C9.47349463,10.9138122 14.1862617,6.25002441 19.9997533,6.24992676 C20.5212011,6.24992676 21.0420568,6.28830581 21.5577809,6.3646733 C26.7886405,7.2284462 30.5986436,11.7422334 30.526308,16.9896171 Z M21.052616,22.9167887 L21.052616,17.7084676 C21.0525173,17.432197 20.9415962,17.1673522 20.7442276,16.972039 L16.5336649,12.8053235 L15.0452097,14.2782784 L18.9472853,18.1397193 L18.9472853,22.9167887 L21.052616,22.9167887 Z" fill="#08D607" fill-rule="nonzero"></path>
    </g>
</svg>