<?xml version="1.0" encoding="UTF-8"?>
<svg width="33px" height="21px" viewBox="0 0 33 21" version="1.1" xmlns="http://www.w3.org/2000/svg" xmlns:xlink="http://www.w3.org/1999/xlink">
    <!-- Generator: Sketch 51.2 (57519) - http://www.bohemiancoding.com/sketch -->
    <title>icon/blurb/personas</title>
    <desc>Created with Sketch.</desc>
    <defs></defs>
    <g id="icon/blurb/personas" stroke="none" stroke-width="1" fill="none" fill-rule="evenodd">
        <path d="M22.4999077,11.9997099 C22.0653231,11.9997099 21.5698154,12.0301712 21.0448615,12.0748477 C22.7852308,13.3349289 23.9996308,15.0295909 23.9996308,17.2492022 L23.9996308,21 L33,21 L33,17.2492022 C33,13.7542791 25.9948615,11.9997099 22.4999077,11.9997099 M10.5000923,11.9997099 C7.00513846,11.9997099 0,13.7542791 0,17.2492022 L0,21 L21.0001846,21 L21.0001846,17.2492022 C21.0001846,13.7542791 13.9950462,11.9997099 10.5000923,11.9997099 M10.5000923,8.99927473 C12.9898154,8.99927473 14.9850462,6.98984624 14.9850462,4.50014505 C14.9850462,2.00942849 12.9898154,0 10.5000923,0 C8.01036923,0 5.99990769,2.00942849 5.99990769,4.50014505 C5.99990769,6.98984624 8.01036923,8.99927473 10.5000923,8.99927473 M22.4999077,8.99927473 C24.9896308,8.99927473 26.9848615,6.98984624 26.9848615,4.50014505 C26.9848615,2.00942849 24.9896308,0 22.4999077,0 C20.0101846,0 17.9997231,2.00942849 17.9997231,4.50014505 C17.9997231,6.98984624 20.0101846,8.99927473 22.4999077,8.99927473" id="Fill-41" fill="#08D607"></path>
    </g>
</svg>