<?xml version="1.0" encoding="UTF-8"?>
<svg width="40px" height="53px" viewBox="0 0 40 53" version="1.1" xmlns="http://www.w3.org/2000/svg" xmlns:xlink="http://www.w3.org/1999/xlink">
    <!-- Generator: Sketch 51.2 (57519) - http://www.bohemiancoding.com/sketch -->
    <title>icon/blurb/reportes financeros</title>
    <desc>Created with Sketch.</desc>
    <defs></defs>
    <g id="icon/blurb/reportes-financeros" stroke="none" stroke-width="1" fill="none" fill-rule="evenodd">
        <path d="M36.6666667,7 L33.3333333,7 L33.3333333,8.64285714 C33.3333333,11.3601429 31.09,13.5714286 28.3333333,13.5714286 L11.6666667,13.5714286 C8.91,13.5714286 6.66666667,11.3601429 6.66666667,8.64285714 L6.66666667,7 L3.33333333,7 C1.49666667,7 0,8.47528571 0,10.2857143 L0,49.7142857 C0,51.5575714 1.46333333,53 3.33333333,53 L36.6666667,53 C38.5366667,53 40,51.5575714 40,49.7142857 L40,10.2857143 C40,8.44242857 38.5366667,7 36.6666667,7 Z M21.6666667,17.0247143 C24.9266667,17.6785714 27.5,20.2151429 28.1633333,23.4285714 L21.6666667,23.4285714 L21.6666667,17.0247143 Z M18.3333333,17.0247143 L18.3333333,25.0714286 C18.3333333,25.9782857 19.08,26.7142857 20,26.7142857 L28.1633333,26.7142857 C27.39,30.46 24.0266667,33.2857143 20,33.2857143 C15.4066667,33.2857143 11.6666667,29.5991429 11.6666667,25.0714286 C11.6666667,21.1055714 14.5333333,17.787 18.3333333,17.0247143 Z M21.6666667,46.4285714 L8.33333333,46.4285714 C7.41333333,46.4285714 6.66666667,45.6925714 6.66666667,44.7857143 C6.66666667,43.8788571 7.41333333,43.1428571 8.33333333,43.1428571 L21.6666667,43.1428571 C22.5866667,43.1428571 23.3333333,43.8788571 23.3333333,44.7857143 C23.3333333,45.6925714 22.5866667,46.4285714 21.6666667,46.4285714 Z M31.6666667,39.8571429 L8.33333333,39.8571429 C7.41333333,39.8571429 6.66666667,39.1211429 6.66666667,38.2142857 C6.66666667,37.3074286 7.41333333,36.5714286 8.33333333,36.5714286 L31.6666667,36.5714286 C32.5866667,36.5714286 33.3333333,37.3074286 33.3333333,38.2142857 C33.3333333,39.1211429 32.5866667,39.8571429 31.6666667,39.8571429 Z M29.25,3.33333333 C30.216,3.33333333 31,4.08 31,5 L31,8.33333333 C31,9.25333333 30.216,10 29.25,10 L11.75,10 C10.784,10 10,9.25333333 10,8.33333333 L10,5 C10,4.08 10.784,3.33333333 11.75,3.33333333 L15.5475,3.33333333 C16.272,1.39333333 18.218,0 20.5,0 C22.782,0 24.728,1.39333333 25.449,3.33333333 L29.25,3.33333333 Z" id="reportes-financeros" fill="#08D607" fill-rule="nonzero"></path>
    </g>
</svg>