<?xml version="1.0" encoding="UTF-8"?>
<svg width="58px" height="56px" viewBox="0 0 58 56" version="1.1" xmlns="http://www.w3.org/2000/svg" xmlns:xlink="http://www.w3.org/1999/xlink">
    <!-- Generator: Sketch 51.2 (57519) - http://www.bohemiancoding.com/sketch -->
    <title>icon/blurb/tres paso</title>
    <desc>Created with Sketch.</desc>
    <defs></defs>
    <g id="icon/blurb/tres-paso" stroke="none" stroke-width="1" fill="none" fill-rule="evenodd">
        <path d="M57.9678376,14.5219663 L55.6796425,19.8858667 C56.2240286,22.0045912 56.5150613,24.2247593 56.5150613,26.513125 C56.5150613,33.1410652 54.0855269,39.2021141 50.0692082,43.8530101 L41.8783528,35.6633481 C43.8274361,33.1291307 44.9874748,29.9564145 44.9874748,26.513125 C44.9874748,18.6772373 38.9879741,12.2451942 31.3329802,11.5548655 L31.3329802,0 C40.1065829,0.444647413 47.7562915,5.14856694 52.2556187,12.0849302 L57.9678376,14.5219663 Z M14.9471774,26.5132955 C14.9471774,32.5180815 18.4714514,37.6983602 23.5640965,40.103173 L19.2533353,50.8076162 C10.1931328,46.806301 3.79211954,37.8864147 3.43612882,27.4325972 L0,23.9003099 L4.29967911,19.7162255 C7.19039877,8.77053383 16.8950673,0.593147373 28.6021835,0.00017049364 L28.6021835,11.555036 C20.9463371,12.2451942 14.9471774,18.6774078 14.9471774,26.5132955 Z M29.9673261,41.5331032 C33.8353153,41.5331032 37.3607828,40.0711202 40.0232115,37.6702288 L48.1799682,45.8263035 C45.7519683,48.1170561 42.891767,49.953784 39.7352477,51.2033319 L36.5417314,56 L32.0094989,52.9827741 C31.3355376,53.0332402 30.654586,53.0606896 29.9671556,53.0606896 C27.1197413,53.0606896 24.3778626,52.6105864 21.8059661,51.7807939 L26.1315602,41.0383306 C27.356216,41.3607341 28.6413971,41.5331032 29.9673261,41.5331032 Z" id="Shape" fill="#08D607" fill-rule="nonzero"></path>
    </g>
</svg>